<svg width="346" height="137" viewBox="0 0 346 137" fill="none" xmlns="http://www.w3.org/2000/svg">
<path d="M1.756 136H12.172V108.196H18.388L18.304 98.368H12.172V83.08H19.564V73.504H1.756V136ZM44.9012 85.264C44.9012 77.788 41.4572 72.916 33.5612 72.916H31.8812C23.9852 72.916 20.5412 77.62 20.5412 85.264V124.492C20.5412 132.136 24.5732 136.588 31.8812 136.588H33.6452C40.5332 136.588 44.9012 132.304 44.9012 124.492V85.264ZM33.9812 125.416C33.9812 126.508 33.5612 127.096 32.7212 127.096C31.8812 127.096 31.5452 126.508 31.5452 125.416V84.088C31.5452 82.828 31.7972 82.24 32.7212 82.24C33.6452 82.24 33.9812 82.912 33.9812 84.088V125.416ZM57.049 81.4H57.973C58.897 81.4 59.065 81.82 59.065 82.828V98.2C59.065 99.124 58.729 99.628 57.889 99.628H57.049V81.4ZM57.049 108.532H57.889C58.897 108.532 59.065 109.12 59.065 109.96V133.396C59.065 134.488 59.317 135.496 59.737 136H70.237V135.748C69.901 135.16 69.733 134.152 69.733 132.976V108.196C69.733 105.004 67.549 103.156 65.785 102.4C67.549 101.644 69.565 99.88 69.565 95.68V80.98C69.565 75.856 66.625 73.504 62.929 73.504H46.381V136H57.049V108.532ZM89.811 127.432C88.971 127.432 88.719 126.76 88.719 125.668V83.416C88.719 82.324 88.971 81.82 89.811 81.82C90.735 81.82 90.903 82.408 90.903 83.416V99.628H101.319V83.08C101.319 76.948 98.127 72.916 90.735 72.916H88.971C80.907 72.916 77.883 77.704 77.799 84.256V124.912C77.799 132.22 81.075 136.588 89.055 136.588H90.735C98.211 136.588 101.319 131.548 101.319 125.92V107.44H90.903V125.668C90.903 126.676 90.735 127.432 89.811 127.432ZM127.096 85.264C127.096 77.788 123.652 72.916 115.756 72.916H114.076C106.18 72.916 102.736 77.62 102.736 85.264V124.492C102.736 132.136 106.768 136.588 114.076 136.588H115.84C122.728 136.588 127.096 132.304 127.096 124.492V85.264ZM116.176 125.416C116.176 126.508 115.756 127.096 114.916 127.096C114.076 127.096 113.74 126.508 113.74 125.416V84.088C113.74 82.828 113.992 82.24 114.916 82.24C115.84 82.24 116.176 82.912 116.176 84.088V125.416ZM128.576 73.504V136H137.48L137.396 98.536L142.352 136H152.18V73.504H143.36L143.444 107.356L139.328 73.504H128.576ZM162.246 136.588C165.774 136.588 168.042 134.236 169.47 132.052C169.806 132.808 170.394 135.076 170.562 136H177.702V99.208H165.438V107.356H167.622V126.004C167.622 127.264 167.034 127.936 166.11 127.936C165.102 127.936 164.598 127.264 164.598 126.004V83.332C164.598 82.324 164.85 81.736 165.774 81.736C166.782 81.736 167.034 82.324 167.034 83.332V96.94H177.282V82.912C177.282 77.872 174.93 72.916 166.362 72.916H164.934C156.534 72.916 153.678 77.872 153.678 83.752V126.256C153.678 131.8 156.366 136.588 161.994 136.588H162.246ZM189.858 81.4H190.782C191.706 81.4 191.874 81.82 191.874 82.828V98.2C191.874 99.124 191.538 99.628 190.698 99.628H189.858V81.4ZM189.858 108.532H190.698C191.706 108.532 191.874 109.12 191.874 109.96V133.396C191.874 134.488 192.126 135.496 192.546 136H203.046V135.748C202.71 135.16 202.542 134.152 202.542 132.976V108.196C202.542 105.004 200.358 103.156 198.594 102.4C200.358 101.644 202.374 99.88 202.374 95.68V80.98C202.374 75.856 199.434 73.504 195.738 73.504H179.19V136H189.858V108.532ZM204.045 73.504V136H222.273V126.256H214.461V108.196H220.845V98.284H214.461V83.08H222.021V73.504H204.045ZM233.817 136.588H236.253C243.897 136.588 247.257 132.136 247.257 125.5V113.068C247.257 107.608 245.745 104.752 241.461 101.224L236.085 96.52C234.741 95.344 234.405 94.672 234.405 92.992V82.324C234.405 81.4 234.741 80.98 235.497 80.98C236.253 80.98 236.589 81.4 236.589 82.324V95.596H246.837V81.82C246.837 76.78 244.4 72.916 236.757 72.916H234.321C226.761 72.916 223.653 76.864 223.653 82.66V93.748C223.653 98.452 225.165 101.896 228.777 104.92L234.237 109.624C235.833 111.052 236.085 111.892 236.085 113.908V126.088C236.085 127.18 235.833 127.852 234.909 127.852C234.069 127.852 233.817 127.18 233.817 126.172V110.548H223.401V126.928C223.401 133.312 226.845 136.588 233.817 136.588ZM259 136.588H261.436C269.08 136.588 272.44 132.136 272.44 125.5V113.068C272.44 107.608 270.928 104.752 266.644 101.224L261.268 96.52C259.924 95.344 259.588 94.672 259.588 92.992V82.324C259.588 81.4 259.924 80.98 260.68 80.98C261.436 80.98 261.772 81.4 261.772 82.324V95.596H272.02V81.82C272.02 76.78 269.584 72.916 261.94 72.916H259.504C251.944 72.916 248.836 76.864 248.836 82.66V93.748C248.836 98.452 250.348 101.896 253.96 104.92L259.42 109.624C261.016 111.052 261.268 111.892 261.268 113.908V126.088C261.268 127.18 261.016 127.852 260.092 127.852C259.252 127.852 259 127.18 259 126.172V110.548H248.584V126.928C248.584 133.312 252.028 136.588 259 136.588Z" fill="black"/>
<path d="M13.684 43.588H11.164L12.424 19.816L13.684 43.588ZM14.776 64H25.108L19.48 1.504H6.04L0.832 64H9.988L10.576 52.744H14.188L14.776 64ZM25.7091 64H41.0811C45.7011 64 49.1451 61.06 49.1451 54.508V10.492C49.1451 3.856 45.5331 1.504 40.9131 1.504H25.7091V64ZM36.1251 10.072H37.1331C38.1411 10.072 38.3931 10.744 38.3931 12.004V53.08C38.3931 54.508 38.1411 55.18 37.1331 55.18H36.1251V10.072ZM50.6466 1.504V64H68.8746V54.256H61.0626V36.196H67.4466V26.284H61.0626V11.08H68.6226V1.504H50.6466ZM70.2521 64H78.9881V29.056L82.1801 64H85.9601L89.0681 29.056V64H97.9721V1.504H86.1281L84.2801 31.828L82.4321 1.504H70.2521V64ZM106.018 64H122.062C127.27 64 130.042 60.724 130.042 54.508V37.372C130.042 32.332 126.85 30.568 125.086 30.064C126.43 29.644 129.202 27.712 129.202 23.512V9.4C129.202 3.772 126.43 1.504 122.146 1.504H106.018V64ZM117.442 9.4C118.534 9.4 118.702 9.82 118.702 10.912V25.612C118.702 26.704 118.366 27.208 117.442 27.208H116.686V9.4H117.442ZM117.694 34.936C118.702 34.936 118.954 35.44 118.954 36.616V54.256C118.954 55.348 118.786 55.852 117.694 55.852H116.686V34.936H117.694ZM144.217 64.672C151.777 64.672 155.389 59.8 155.389 54.34V1.504H144.553V53.08C144.553 54.172 144.217 54.676 143.377 54.676C142.705 54.676 142.285 54.256 142.285 53.08V1.504H131.365V54.34C131.365 59.884 134.389 64.672 142.537 64.672H144.217ZM156.877 1.504V64H165.781L165.697 26.536L170.653 64H180.481V1.504H171.661L171.745 35.356L167.629 1.504H156.877ZM192.563 64L192.479 39.388L195.755 64H206.843L201.467 29.812L206.591 1.504H196.007L192.479 24.016L192.563 1.504H181.979V64H192.563ZM207.326 1.504V64H225.554V54.256H217.742V36.196H224.126V26.284H217.742V11.08H225.302V1.504H207.326ZM226.932 64H242.304C246.924 64 250.368 61.06 250.368 54.508V10.492C250.368 3.856 246.756 1.504 242.136 1.504H226.932V64ZM237.348 10.072H238.356C239.364 10.072 239.616 10.744 239.616 12.004V53.08C239.616 54.508 239.364 55.18 238.356 55.18H237.348V10.072ZM251.869 1.504V64H270.097V54.256H262.285V36.196H268.669V26.284H262.285V11.08H269.845V1.504H251.869ZM282.059 64L281.975 39.388L285.251 64H296.339L290.963 29.812L296.087 1.504H285.503L281.975 24.016L282.059 1.504H271.475V64H282.059ZM307.406 64L307.322 39.388L310.598 64H321.686L316.31 29.812L321.434 1.504H310.85L307.322 24.016L307.406 1.504H296.822V64H307.406ZM345.546 13.264C345.546 5.788 342.102 0.915996 334.206 0.915996H332.526C324.63 0.915996 321.186 5.62 321.186 13.264V52.492C321.186 60.136 325.218 64.588 332.526 64.588H334.29C341.178 64.588 345.546 60.304 345.546 52.492V13.264ZM334.626 53.416C334.626 54.508 334.206 55.096 333.366 55.096C332.526 55.096 332.19 54.508 332.19 53.416V12.088C332.19 10.828 332.442 10.24 333.366 10.24C334.29 10.24 334.626 10.912 334.626 12.088V53.416Z" fill="black"/>
</svg>
