<svg width="1270" height="130" viewBox="0 0 1270 130" fill="none" xmlns="http://www.w3.org/2000/svg">
<path d="M26.67 86.69H21.57L24.12 38.58L26.67 86.69ZM28.88 128H49.79L38.4 1.52H11.2L0.66 128H19.19L20.38 105.22H27.69L28.88 128ZM51.0066 128H82.1166C91.4666 128 98.4366 122.05 98.4366 108.79V19.71C98.4366 6.28 91.1266 1.52 81.7766 1.52H51.0066V128ZM72.0866 18.86H74.1266C76.1666 18.86 76.6766 20.22 76.6766 22.77V105.9C76.6766 108.79 76.1666 110.15 74.1266 110.15H72.0866V18.86ZM101.475 1.52V128H138.365V108.28H122.555V71.73H135.475V51.67H122.555V20.9H137.855V1.52H101.475ZM141.153 128H158.833V57.28L165.293 128H172.943L179.233 57.28V128H197.253V1.52H173.283L169.543 62.89L165.803 1.52H141.153V128ZM213.536 128H246.006C256.546 128 262.156 121.37 262.156 108.79V74.11C262.156 63.91 255.696 60.34 252.126 59.32C254.846 58.47 260.456 54.56 260.456 46.06V17.5C260.456 6.11 254.846 1.52 246.176 1.52H213.536V128ZM236.656 17.5C238.866 17.5 239.206 18.35 239.206 20.56V50.31C239.206 52.52 238.526 53.54 236.656 53.54H235.126V17.5H236.656ZM237.166 69.18C239.206 69.18 239.716 70.2 239.716 72.58V108.28C239.716 110.49 239.376 111.51 237.166 111.51H235.126V69.18H237.166ZM290.845 129.36C306.145 129.36 313.455 119.5 313.455 108.45V1.52H291.525V105.9C291.525 108.11 290.845 109.13 289.145 109.13C287.785 109.13 286.935 108.28 286.935 105.9V1.52H264.835V108.45C264.835 119.67 270.955 129.36 287.445 129.36H290.845ZM316.466 1.52V128H334.486L334.316 52.18L344.346 128H364.236V1.52H346.386L346.556 70.03L338.226 1.52H316.466ZM388.686 128L388.516 78.19L395.146 128H417.586L406.706 58.81L417.076 1.52H395.656L388.516 47.08L388.686 1.52H367.266V128H388.686ZM418.565 1.52V128H455.455V108.28H439.645V71.73H452.565V51.67H439.645V20.9H454.945V1.52H418.565ZM458.243 128H489.353C498.703 128 505.673 122.05 505.673 108.79V19.71C505.673 6.28 498.363 1.52 489.013 1.52H458.243V128ZM479.323 18.86H481.363C483.403 18.86 483.913 20.22 483.913 22.77V105.9C483.913 108.79 483.403 110.15 481.363 110.15H479.323V18.86ZM508.712 1.52V128H545.602V108.28H529.792V71.73H542.712V51.67H529.792V20.9H545.092V1.52H508.712ZM569.809 128L569.639 78.19L576.269 128H598.709L587.829 58.81L598.199 1.52H576.779L569.639 47.08L569.809 1.52H548.389V128H569.809ZM621.108 128L620.938 78.19L627.568 128H650.008L639.128 58.81L649.498 1.52H628.078L620.938 47.08L621.108 1.52H599.688V128H621.108ZM698.295 25.32C698.295 10.19 691.325 0.329992 675.345 0.329992H671.945C655.965 0.329992 648.995 9.84999 648.995 25.32V104.71C648.995 120.18 657.155 129.19 671.945 129.19H675.515C689.455 129.19 698.295 120.52 698.295 104.71V25.32ZM676.195 106.58C676.195 108.79 675.345 109.98 673.645 109.98C671.945 109.98 671.265 108.79 671.265 106.58V22.94C671.265 20.39 671.775 19.2 673.645 19.2C675.515 19.2 676.195 20.56 676.195 22.94V106.58Z" fill="black"/>
<path d="M721.53 128H742.61V71.73H755.19L755.02 51.84H742.61V20.9H757.57V1.52H721.53V128ZM808.848 25.32C808.848 10.19 801.878 0.329992 785.898 0.329992H782.498C766.518 0.329992 759.548 9.84999 759.548 25.32V104.71C759.548 120.18 767.708 129.19 782.498 129.19H786.068C800.008 129.19 808.848 120.52 808.848 104.71V25.32ZM786.748 106.58C786.748 108.79 785.898 109.98 784.198 109.98C782.498 109.98 781.818 108.79 781.818 106.58V22.94C781.818 20.39 782.328 19.2 784.198 19.2C786.068 19.2 786.748 20.56 786.748 22.94V106.58ZM833.433 17.5H835.302C837.173 17.5 837.513 18.35 837.513 20.39V51.5C837.513 53.37 836.833 54.39 835.133 54.39H833.433V17.5ZM833.433 72.41H835.133C837.173 72.41 837.513 73.6 837.513 75.3V122.73C837.513 124.94 838.023 126.98 838.873 128H860.123V127.49C859.443 126.3 859.103 124.26 859.103 121.88V71.73C859.103 65.27 854.683 61.53 851.113 60C854.683 58.47 858.763 54.9 858.763 46.4V16.65C858.763 6.28 852.812 1.52 845.333 1.52H811.843V128H833.433V72.41ZM899.736 110.66C898.036 110.66 897.526 109.3 897.526 107.09V21.58C897.526 19.37 898.036 18.35 899.736 18.35C901.606 18.35 901.946 19.54 901.946 21.58V54.39H923.026V20.9C923.026 8.49 916.566 0.329992 901.606 0.329992H898.036C881.716 0.329992 875.596 10.02 875.426 23.28V105.56C875.426 120.35 882.056 129.19 898.206 129.19H901.606C916.736 129.19 923.026 118.99 923.026 107.6V70.2H901.946V107.09C901.946 109.13 901.606 110.66 899.736 110.66ZM975.195 25.32C975.195 10.19 968.225 0.329992 952.245 0.329992H948.845C932.865 0.329992 925.895 9.84999 925.895 25.32V104.71C925.895 120.18 934.055 129.19 948.845 129.19H952.415C966.355 129.19 975.195 120.52 975.195 104.71V25.32ZM953.095 106.58C953.095 108.79 952.245 109.98 950.545 109.98C948.845 109.98 948.165 108.79 948.165 106.58V22.94C948.165 20.39 948.675 19.2 950.545 19.2C952.415 19.2 953.095 20.56 953.095 22.94V106.58ZM978.19 1.52V128H996.21L996.04 52.18L1006.07 128H1025.96V1.52H1008.11L1008.28 70.03L999.95 1.52H978.19ZM1046.33 129.19C1053.47 129.19 1058.06 124.43 1060.95 120.01C1061.63 121.54 1062.82 126.13 1063.16 128H1077.61V53.54H1052.79V70.03H1057.21V107.77C1057.21 110.32 1056.02 111.68 1054.15 111.68C1052.11 111.68 1051.09 110.32 1051.09 107.77V21.41C1051.09 19.37 1051.6 18.18 1053.47 18.18C1055.51 18.18 1056.02 19.37 1056.02 21.41V48.95H1076.76V20.56C1076.76 10.36 1072 0.329992 1054.66 0.329992H1051.77C1034.77 0.329992 1028.99 10.36 1028.99 22.26V108.28C1028.99 119.5 1034.43 129.19 1045.82 129.19H1046.33ZM1102.21 17.5H1104.08C1105.95 17.5 1106.29 18.35 1106.29 20.39V51.5C1106.29 53.37 1105.61 54.39 1103.91 54.39H1102.21V17.5ZM1102.21 72.41H1103.91C1105.95 72.41 1106.29 73.6 1106.29 75.3V122.73C1106.29 124.94 1106.8 126.98 1107.65 128H1128.9V127.49C1128.22 126.3 1127.88 124.26 1127.88 121.88V71.73C1127.88 65.27 1123.46 61.53 1119.89 60C1123.46 58.47 1127.54 54.9 1127.54 46.4V16.65C1127.54 6.28 1121.59 1.52 1114.11 1.52H1080.62V128H1102.21V72.41ZM1130.92 1.52V128H1167.81V108.28H1152V71.73H1164.92V51.67H1152V20.9H1167.3V1.52H1130.92ZM1191.18 129.19H1196.11C1211.58 129.19 1218.38 120.18 1218.38 106.75V81.59C1218.38 70.54 1215.32 64.76 1206.65 57.62L1195.77 48.1C1193.05 45.72 1192.37 44.36 1192.37 40.96V19.37C1192.37 17.5 1193.05 16.65 1194.58 16.65C1196.11 16.65 1196.79 17.5 1196.79 19.37V46.23H1217.53V18.35C1217.53 8.14999 1212.6 0.329992 1197.13 0.329992H1192.2C1176.9 0.329992 1170.61 8.31999 1170.61 20.05V42.49C1170.61 52.01 1173.67 58.98 1180.98 65.1L1192.03 74.62C1195.26 77.51 1195.77 79.21 1195.77 83.29V107.94C1195.77 110.15 1195.26 111.51 1193.39 111.51C1191.69 111.51 1191.18 110.15 1191.18 108.11V76.49H1170.1V109.64C1170.1 122.56 1177.07 129.19 1191.18 129.19ZM1242.14 129.19H1247.07C1262.54 129.19 1269.34 120.18 1269.34 106.75V81.59C1269.34 70.54 1266.28 64.76 1257.61 57.62L1246.73 48.1C1244.01 45.72 1243.33 44.36 1243.33 40.96V19.37C1243.33 17.5 1244.01 16.65 1245.54 16.65C1247.07 16.65 1247.75 17.5 1247.75 19.37V46.23H1268.49V18.35C1268.49 8.14999 1263.56 0.329992 1248.09 0.329992H1243.16C1227.86 0.329992 1221.57 8.31999 1221.57 20.05V42.49C1221.57 52.01 1224.63 58.98 1231.94 65.1L1242.99 74.62C1246.22 77.51 1246.73 79.21 1246.73 83.29V107.94C1246.73 110.15 1246.22 111.51 1244.35 111.51C1242.65 111.51 1242.14 110.15 1242.14 108.11V76.49H1221.06V109.64C1221.06 122.56 1228.03 129.19 1242.14 129.19Z" fill="black"/>
</svg>
