<?xml version="1.0" encoding="utf-8"?>
<!-- Generator: Adobe Illustrator 21.0.0, SVG Export Plug-In . SVG Version: 6.00 Build 0)  -->
<svg version="1.1" id="Layer_1" xmlns="http://www.w3.org/2000/svg" xmlns:xlink="http://www.w3.org/1999/xlink" x="0px" y="0px"
	 viewBox="0 0 1413.2 604.1" style="enable-background:new 0 0 1413.2 604.1;" xml:space="preserve">
<style type="text/css">
	.st0{fill:#FFFFFF;}
</style>
<path class="st0" d="M33.8,548.7h-6.6l3.3-62.4L33.8,548.7z M36.6,602.3h27.1L49,438.2H13.7L0,602.3h24l1.5-29.6h9.5L36.6,602.3z
	 M65.3,602.3h40.4c12.1,0,21.2-7.7,21.2-24.9V461.8c0-17.4-9.5-23.6-21.6-23.6H65.3V602.3z M92.7,460.7h2.6c2.6,0,3.3,1.8,3.3,5.1
	v107.9c0,3.8-0.7,5.5-3.3,5.5h-2.6V460.7z M130.8,438.2v164.1h47.9v-25.6h-20.5v-47.4h16.8v-26h-16.8v-39.9H178v-25.1H130.8z
	 M182.3,602.3h22.9v-91.8l8.4,91.8h9.9l8.2-91.8v91.8h23.4V438.2H224l-4.9,79.6l-4.9-79.6h-32V602.3z M276.2,602.3h42.1
	c13.7,0,21-8.6,21-24.9v-45c0-13.2-8.4-17.9-13-19.2c3.5-1.1,10.8-6.2,10.8-17.2V459c0-14.8-7.3-20.7-18.5-20.7h-42.4V602.3z
	 M306.2,459c2.9,0,3.3,1.1,3.3,4v38.6c0,2.9-0.9,4.2-3.3,4.2h-2V459H306.2z M306.9,526c2.6,0,3.3,1.3,3.3,4.4v46.3
	c0,2.9-0.4,4.2-3.3,4.2h-2.6V526H306.9z M376.6,604.1c19.9,0,29.3-12.8,29.3-27.1V438.2h-28.5v135.4c0,2.9-0.9,4.2-3.1,4.2
	c-1.8,0-2.9-1.1-2.9-4.2V438.2h-28.7V577c0,14.6,7.9,27.1,29.3,27.1H376.6z M409.8,438.2v164.1h23.4L433,504l13,98.4h25.8V438.2
	h-23.2l0.2,88.9L438,438.2H409.8z M503.5,602.3l-0.2-64.6l8.6,64.6H541l-14.1-89.8l13.5-74.3h-27.8l-9.3,59.1l0.2-59.1h-27.8v164.1
	H503.5z M542.3,438.2v164.1h47.9v-25.6h-20.5v-47.4h16.8v-26h-16.8v-39.9h19.9v-25.1H542.3z M593.8,602.3h40.4
	c12.1,0,21.2-7.7,21.2-24.9V461.8c0-17.4-9.5-23.6-21.6-23.6h-39.9V602.3z M621.1,460.7h2.6c2.6,0,3.3,1.8,3.3,5.1v107.9
	c0,3.8-0.7,5.5-3.3,5.5h-2.6V460.7z M659.3,602.3h40.4c12.1,0,21.2-7.7,21.2-24.9V461.8c0-17.4-9.5-23.6-21.6-23.6h-39.9V602.3z
	 M686.6,460.7h2.6c2.6,0,3.3,1.8,3.3,5.1v107.9c0,3.8-0.7,5.5-3.3,5.5h-2.6V460.7z M724.8,438.2v164.1h47.9v-25.6h-20.5v-47.4h16.8
	v-26h-16.8v-39.9H772v-25.1H724.8z M804,602.3l-0.2-64.6l8.6,64.6h29.1l-14.1-89.8l13.5-74.3h-27.8l-9.3,59.1l0.2-59.1h-27.8v164.1
	H804z M904.2,469.1c0-19.6-9-32.4-29.8-32.4H870c-20.7,0-29.8,12.4-29.8,32.4v103c0,20.1,10.6,31.8,29.8,31.8h4.6
	c18.1,0,29.6-11.3,29.6-31.8V469.1z M875.5,574.6c0,2.9-1.1,4.4-3.3,4.4s-3.1-1.5-3.1-4.4V466c0-3.3,0.7-4.9,3.1-4.9
	c2.4,0,3.3,1.8,3.3,4.9V574.6z"/>
<path class="st0" d="M929.1,598.6h26.5v-70.7h15.8l-0.2-25h-15.6v-38.9h18.8v-24.3h-45.3V598.6z"/>
<path class="st0" d="M1040.9,466.4c-1.6-18.9-11.4-30.5-31.4-28.8l-4.3,0.4c-20,1.7-27.7,14.3-26.1,33.7l8.4,99.4
	c1.6,19.4,12.8,29.8,31.3,28.2l4.5-0.4c17.4-1.5,27.6-13.3,25.9-33L1040.9,466.4z M1021.8,570.4c0.2,2.8-0.7,4.3-2.8,4.5
	c-2.1,0.2-3.1-1.2-3.3-4l-8.9-104.7c-0.3-3.2,0.2-4.7,2.6-4.9c2.3-0.2,3.3,1.4,3.6,4.4L1021.8,570.4z"/>
<path class="st0" d="M1071.7,453.5l2.3-0.5c2.3-0.5,2.9,0.5,3.4,3l7.8,38.3c0.5,2.3-0.1,3.7-2.2,4.2l-2.1,0.4L1071.7,453.5z
	 M1085.4,521.1l2.1-0.4c2.5-0.5,3.2,0.9,3.6,3L1103,582c0.6,2.7,1.7,5.1,3,6.1l26.2-5.3l-0.1-0.6c-1.1-1.3-2.1-3.7-2.7-6.7
	l-12.5-61.7c-1.6-8-8-11.5-12.8-12.4c4-2.8,8.2-8.2,6-18.6l-7.4-36.6c-2.6-12.8-11.1-17.1-20.3-15.3l-41.2,8.4l31.5,155.7l26.6-5.4
	L1085.4,521.1z"/>
<path class="st0" d="M1204.3,536.2c-1.8,1.1-3.3-0.1-4.7-2.5l-54.2-92.7c-1.4-2.4-1.5-3.8,0.3-4.9c2-1.2,3.2-0.1,4.4,2.1l20.8,35.6
	l22.9-13.4l-21.2-36.3c-7.9-13.5-20-18.2-36.3-8.7l-3.9,2.3c-17.7,10.3-18.2,24.7-10,39.2l52.2,89.2c9.4,16,22.2,21.4,39.7,11.2
	l3.7-2.2c16.4-9.6,16.8-24.6,9.5-37l-23.7-40.5l-22.8,13.4l23.4,40C1205.8,533.2,1206.4,535,1204.3,536.2z"/>
<path class="st0" d="M1219.5,377.8c-13-13.9-27.8-16.9-42.5-3.2l-3.1,2.9c-14.7,13.7-12.9,28.4,0.4,42.6l68.2,72.8
	c13.3,14.2,28.5,15.4,42.1,2.7l3.3-3.1c12.8-12,13.4-27.5-0.2-42L1219.5,377.8z M1269.1,471.2c1.9,2,2.1,3.8,0.6,5.3
	c-1.6,1.5-3.2,1-5.1-1.1l-71.8-76.7c-2.2-2.3-2.7-3.9-1-5.5c1.7-1.6,3.5-0.9,5.6,1.2L1269.1,471.2z"/>
<path class="st0" d="M1195.5,358.9l134.3,84.8l12.1-19.1l-80.6-50.7l87.2,40.2l13.3-21.1l-134.3-84.8l-12,19l72.9,45.8l-78.3-37.1
	L1195.5,358.9z"/>
<path class="st0" d="M1383,337.3c3-8.5-0.8-15.9-4.8-21.1c2.1-0.2,8,0.3,10.4,0.7l6-17.1l-88.3-30.9l-10.3,29.4l19.5,6.8l1.8-5.2
	l44.7,15.7c3,1.1,4.1,3,3.4,5.2c-0.8,2.4-2.9,3.1-5.9,2L1257.2,287c-2.4-0.8-3.6-1.9-2.8-4.2c0.8-2.4,2.5-2.5,4.9-1.7l32.6,11.4
	l8.6-24.6l-33.7-11.8c-12.1-4.2-26-2.7-33.2,17.8l-1.2,3.4c-7.1,20.2,2.4,31.2,16.6,36.1l102,35.7c13.3,4.7,27,2.2,31.8-11.3
	L1383,337.3z"/>
<path class="st0" d="M1267.5,222.8l0.4-2.3c0.4-2.3,1.5-2.6,4-2.2l38.6,6.1c2.3,0.4,3.4,1.4,3.1,3.5l-0.3,2.1L1267.5,222.8z
	 M1335.6,233.5l0.3-2.1c0.4-2.5,1.9-2.7,4.1-2.4l58.8,9.2c2.7,0.4,5.4,0.2,6.8-0.7l4.1-26.4l-0.6-0.1c-1.6,0.6-4.2,0.6-7.2,0.2
	l-62.2-9.8c-8-1.3-13.5,3.5-16.1,7.6c-1.2-4.7-4.8-10.5-15.4-12.1l-36.9-5.8c-12.9-2-19.9,4.4-21.4,13.7l-6.5,41.6l156.9,24.7
	l4.2-26.8L1335.6,233.5z"/>
<path class="st0" d="M1251.2,182.8L1410,186l0.9-46.3l-24.8-0.5l-0.4,19.9l-45.9-0.9l0.3-16.2l-25.2-0.5l-0.3,16.2l-38.6-0.8
	l0.4-19.2l-24.3-0.5L1251.2,182.8z"/>
<path class="st0" d="M1413.2,34.2V28c0-19.4-11.3-28-28.2-28h-31.6c-13.9,0-21.1,3.8-30.1,14.7l-12,13.7c-3,3.4-4.7,4.3-9,4.3h-27.1
	c-2.3,0-3.4-0.9-3.4-2.8s1.1-2.8,3.4-2.8h33.7v-26h-35c-12.8,0-22.6,6.2-22.6,25.6v6.2c0,19.2,10,27.1,24.8,27.1h28.2
	c12,0,20.7-3.8,28.4-13l11.9-13.9c3.6-4.1,5.8-4.7,10.9-4.7h31c2.8,0,4.5,0.6,4.5,3c0,2.1-1.7,2.8-4.3,2.8H1347v26.5h41.6
	C1404.9,60.6,1413.2,51.9,1413.2,34.2z"/>
<path class="st0" d="M1412.7,104.8v-6.2c0-19.4-11.3-28-28.2-28h-31.6c-13.9,0-21.1,3.8-30.1,14.7l-12,13.7c-3,3.4-4.7,4.3-9,4.3
	h-27.1c-2.3,0-3.4-0.9-3.4-2.8c0-1.9,1.1-2.8,3.4-2.8h33.7v-26h-35c-12.8,0-22.6,6.2-22.6,25.6v6.2c0,19.2,10,27.1,24.8,27.1h28.2
	c11.9,0,20.7-3.8,28.4-13l12-13.9c3.6-4.1,5.8-4.7,10.9-4.7h31c2.8,0,4.5,0.6,4.5,3c0,2.1-1.7,2.8-4.3,2.8h-39.7v26.5h41.6
	C1404.4,131.3,1412.7,122.5,1412.7,104.8z"/>
</svg>
