<svg width="24" height="24" viewBox="0 0 20 20" fill="none" xmlns="http://www.w3.org/2000/svg">
<path d="M20 2.12307V17.6923C20 18.8644 19.0402 19.8153 17.8571 19.8153H14.0491V11.9777H16.7545L17.1429 8.98767H14.0491V7.07691C14.0491 6.20999 14.2902 5.62172 15.5446 5.62172H17.1429V2.95019C16.8661 2.9148 15.9196 2.83076 14.8125 2.83076C12.5089 2.83076 10.9286 4.22403 10.9286 6.78498V8.99209H8.21429V11.9821H10.933V19.8153H2.14286C0.959821 19.8153 0 18.8644 0 17.6923V2.12307C0 0.950959 0.959821 0 2.14286 0H17.8571C19.0402 0 20 0.950959 20 2.12307Z" fill="black"/>
</svg>
