<svg width="24" height="24" viewBox="0 0 20 20" fill="none" xmlns="http://www.w3.org/2000/svg">
<path d="M5.78835 0C2.59625 0 0 2.57876 0 5.74937V14.066C0 17.2366 2.59625 19.8153 5.78835 19.8153H14.2116C17.4038 19.8153 20 17.2366 20 14.066V5.74937C20 2.57876 17.4038 0 14.2116 0H5.78835ZM5.78835 1.70252H14.2116C16.4829 1.70252 18.2859 3.49343 18.2859 5.74937V14.066C18.2859 16.3219 16.4829 18.1128 14.2116 18.1128H5.78835C3.51712 18.1128 1.71406 16.3219 1.71406 14.066V5.74937C1.71406 3.49343 3.51712 1.70252 5.78835 1.70252ZM15.3685 3.40888C14.7069 3.40888 14.1691 3.94308 14.1691 4.60026C14.1691 5.25744 14.7069 5.79164 15.3685 5.79164C16.0302 5.79164 16.568 5.25744 16.568 4.60026C16.568 3.93924 16.0302 3.40888 15.3685 3.40888ZM9.99806 4.80779C7.16967 4.80779 4.85974 7.10216 4.85974 9.91151C4.85974 12.7209 7.16967 15.0152 9.99806 15.0152C12.8265 15.0152 15.1364 12.7209 15.1364 9.91151C15.1364 7.10216 12.8265 4.80779 9.99806 4.80779ZM9.99806 6.51031C11.8979 6.51031 13.4223 8.02068 13.4223 9.90767C13.4223 11.7947 11.8979 13.305 9.99806 13.305C8.09828 13.305 6.57767 11.7947 6.57767 9.90767C6.57767 8.02068 8.09828 6.51031 9.99806 6.51031Z" fill="black"/>
</svg>
