<svg width="23" height="18" viewBox="0 0 23 18" fill="none" xmlns="http://www.w3.org/2000/svg">
<path d="M22.8572 2.12427C22.0155 2.48483 21.1107 2.7281 20.1654 2.83671C21.1332 2.27632 21.8759 1.39012 22.227 0.334497C21.3223 0.851446 20.3185 1.22938 19.2472 1.43356C18.392 0.551703 17.1721 0 15.8263 0C13.2336 0 11.136 2.02436 11.136 4.52657C11.136 4.88278 11.1765 5.22597 11.2575 5.55612C7.35949 5.36933 3.90255 3.56652 1.58893 0.829726C1.18382 1.49872 0.954258 2.27632 0.954258 3.10604C0.954258 4.67861 1.78248 6.06004 3.04282 6.87239C2.27311 6.85067 1.55292 6.6465 0.918248 6.30765C0.918248 6.32503 0.918248 6.34675 0.918248 6.36413C0.918248 8.55791 2.53418 10.3868 4.68126 10.8038C4.28966 10.9081 3.87555 10.9602 3.44793 10.9602C3.14635 10.9602 2.85377 10.9341 2.56569 10.8777C3.16436 12.6761 4.89282 13.9837 6.94538 14.0228C5.33844 15.2392 3.3174 15.9603 1.1208 15.9603C0.742701 15.9603 0.3691 15.9386 0 15.8951C2.07506 17.181 4.54173 17.9282 7.18844 17.9282C15.8173 17.9282 20.53 11.0297 20.53 5.04786C20.53 4.85238 20.5255 4.65689 20.5165 4.46141C21.4303 3.82717 22.227 3.03219 22.8572 2.12427Z" fill="black"/>
</svg>
